<svg xmlns="http://www.w3.org/2000/svg" xmlns:xlink="http://www.w3.org/1999/xlink" width="500" zoomAndPan="magnify" viewBox="0 0 375 374.999991" height="500" preserveAspectRatio="xMidYMid meet" version="1.0"><defs><clipPath id="3606dcd8b1"><path d="M 15.460938 19 L 355.960938 19 L 355.960938 359.425781 L 15.460938 359.425781 Z M 15.460938 19 " clip-rule="nonzero"/></clipPath></defs><g clip-path="url(#3606dcd8b1)"><path fill="#ffffff" d="M 102.464844 68.582031 L 182.164062 111.460938 L 182.164062 207.476562 L 102.464844 164.347656 Z M 19.644531 213.683594 L 20.886719 214.394531 L 98.8125 256.566406 L 177.835938 213.683594 L 98.671875 171.121094 Z M 102.5 359.105469 L 181.949219 316.152344 L 181.949219 220.03125 L 102.5 262.984375 Z M 269.027344 164.347656 L 269.027344 68.582031 L 189.503906 111.5 L 189.503906 207.265625 Z M 351.8125 213.648438 L 272.894531 170.910156 L 193.65625 213.71875 L 195.820312 214.925781 L 271.367188 255.75 L 272.75 256.496094 L 298.996094 242.308594 Z M 15.460938 316.011719 L 95.050781 359 L 95.050781 262.949219 L 15.460938 219.996094 Z M 276.441406 359 L 355.960938 316.011719 L 355.960938 219.996094 L 276.441406 262.984375 Z M 268.992188 359 L 268.992188 262.949219 L 189.46875 220.03125 L 189.46875 316.046875 Z M 106.652344 62.195312 L 109.558594 63.757812 L 184.433594 104.261719 L 185.816406 105.007812 L 264.875 62.195312 L 185.710938 19.351562 Z M 106.652344 62.195312 " fill-opacity="1" fill-rule="nonzero"/></g></svg>